<?xml version="1.0" encoding="UTF-8" standalone="no"?>
<!DOCTYPE svg PUBLIC "-//W3C//DTD SVG 1.1//EN" "http://www.w3.org/Graphics/SVG/1.1/DTD/svg11.dtd">
<!-- Created with Vectornator (http://vectornator.io/) -->
<svg height="100%" stroke-miterlimit="10" style="fill-rule:nonzero;clip-rule:evenodd;stroke-linecap:round;stroke-linejoin:round;" version="1.1" viewBox="0 0 2384.24 1683.99" width="100%" xml:space="preserve" xmlns="http://www.w3.org/2000/svg" xmlns:vectornator="http://vectornator.io" xmlns:xlink="http://www.w3.org/1999/xlink">
<defs/>
<clipPath id="ArtboardFrame">
<rect height="1683.99" width="2384.24" x="0" y="0"/>
</clipPath>
<g clip-path="url(#ArtboardFrame)" id="Layer-1" vectornator:layerName="Layer 1">
<path d="M0.60272-8.83139L2391.35-8.83139L2391.35 1687.43L0.60272 1687.43L0.60272-8.83139Z" fill="#5a3778" fill-rule="nonzero" opacity="1" stroke="none"/>
<path d="M488.678 226.074L998.326 344.473L324.263 1611.39L1091.87 138.289L858.374 127.716L816.023 461.257L1085.25 500.394L1049.96 768.474L541.645 745.656L900.899 974.396L806.526 1292.01L390.654 1158.39L756.846 1382.11L865.326 840.319L311.872 1457.26L367.283 468.572L591.937 594.287L230.894 1001.61L761.412 834.895L506.77 1415.02L633.938 1490.21L497.506 1612.1L964.585 1073L398.202 1556.81L1057.2 357.155L584.839 397.149L697.377 142.827L705.871 456.545L614.377 825.892L300.819 701.269L775.752 577.518L749.676 1137.23L253 1219.38L698.773 785.708L682.732 1198.85L986.037 875.267L1051.86 428.112L659.113 459.279L1257.96 637.903L720.094 655.937L1207.48 672.851L945.708 45.647L1284.67 378.17L649.442 525.249L1139.53 735.708L238.805 555.994L1162.74 943.317L979.478 964.608L1098.02 1543.24" fill="#c8ab79" fill-rule="nonzero" opacity="1" stroke="none"/>
<path d="M1345.44 937.629L1328.66 514.939L1776.89 438.537L1286.72 739.619L1930.89 847.675L1562.66 378.393L1700.01 1168.82L1380.29 1501.07L1236.61 1293.02L1841.65 1020.19L1804.82 1524.08L1358.66 1163.42L1859.12 624.986L1624.13 1612.54L2042.17 1174.2L1524.2 690.569L1540.85 1614.48L1958.52 142.813L1456.67 35.7586L1487.47 555.058L2258.39 530.607L1799.97 39.9798L1438 269.085L2024.3 679.066L2178.24 220.741L1728.14 273.671L1584.37 1038.28L2123.14 860.794L1405.54 1574.06L1922.55 45.4867L1426.24 357.469L2324.58 297.246L2058.19 750.553L2303.97 1432.24L1799.61 1621.51L1571.63 657.812L2185.9 680.67L1899.19 1216.24L2192.31 1593.12L2272.99 985.291L1244.6 1168.36L1703.2 1593.22L1558.25 839.198L1301.03 807.511L2091.08 160.381L2325.65 436.147L1416.18 167.799L1965.58 565.924L1999.01 81.202L1432.31 88.2904L1432.06 556.946L1682.89 30.8434L1345.44 937.629Z" fill="#79c0c8" fill-rule="nonzero" opacity="1" stroke="none"/>
<path d="M826.259 1465.87L77.2311 1028.43L1104.49 745.563L1407.13 1095.68L207.653 611.068L632.654 1584.75L749.617 197.726L1708.48 94.7518L106.107 111.369L2175.56 649.804L2192.66 81.721L1954.95 1611.05L1580.14 215.401L1243.46 1612L1908.66 410.006L242.174 287.413L114.409 1547.4L1238.04 268.724L957.353 1537.04L2226.84 866.884L148.6 431.809L2272.16 199.77L1593.52 1578.18L1178.76 28.1404L1101.72 1664.75L1968.67 75.9343L589.347 1138.4L2289.52 1142.82L108.436 749.592L2278.72 683.366L750.689 1616.07L678.491 36.3132L260.934 1565L314.386 254.122L2256.89 1315.5L2049.11 116.527L1389.71 1538.73L612.408 1252.65L1331.17 887.573L442.994 576.62L1248.29 511.623L944.936 240.591L1361.64 168.764L859.693 72.5908L374.167 526.04L888.269 1006.69L352.55 1469.1L856.907 1585.26L93.391 891.273L53.3699 1407.1L614.151 1066.36L826.259 1465.87Z" fill="#c640a6" fill-opacity="0.507068" fill-rule="nonzero" opacity="1" stroke="none"/>
<path d="M20.2219 31.2429L302.078 16.2156L214.124 46.4965L168.65 8.47137L21.7273 97.1561L70.3855 303.136L16.9502 482.637L149.269 618.47L38.7445 676.168L132.048 396.794L20.3983 222.64L118.726 181.664L7.53684 379.202L134.515 467.405L25.6145 532.096L126.039 670.951L29.8335 310.791L91.3028 461.677L18.1724 432.316L67.6184 155.936L98.8355 238.431L12.4414 176.834L107.208 71.4244L82.8824 15.8265L84.0341 126.273L15.9244 124.524L30.4391 262.807L101.754 273.57L88.4976 482.932L111.472 528.289L35.0645 577.009L59.1076 492.539L89.3811 586.042L28.5102 636.08L87.9981 694.851L15.3323 748.053L92.42 759.464L56.4803 786.574L36.059 850.414L71.8229 854.67L30.4942 1062.38L117.029 1248.88L76.8919 1549.23L357.102 1594.55L97.9764 1655.7L38.9003 1388.92L161.922 1416.66L33.8985 948.645L131.494 1002.64L23.741 1253.29L184.612 1506.5L39.6698 1609.39L278.887 1674.9L37.702 1505.87L137.674 71.4135L291.673 51.7429L202.988 120.159L161.054 217.897L346.65 59.9873L268.583 167.921L458.336 67.722L427.934 138.397L374.732 47.3922L611.825 41.1429L362.866 143.231L493.318 14.5463L531.183 104.101L167.778 133.053L419.804 21.6921L796.832 18.3873L697.073 63.8722L641.893 98.1068L669.975 39.8245L902.164 69.9808L886.853 9.21121L832.192 74.8853L1018.4 7.04903L1119.67 64.2765L1033.63 119.113L945.293 11.1976L1123.8 94.6174L1292.26 60.9454L1485.81 109.085L1239.54 132.611L1685.96 9.24285L1866.67 92.0366L1481.04 13.2798L1264.13 102.841L2229.79 64.4827L2055.04 15.8634L2114.99 114.35L2322.2 96.3378L2250.18 25.831L2367.34 26.7411L2308.75 157.949L2006.22 24.1868L2186.04 153.794L1164.3 16.2304L2285.29 189.275L2350.77 299.535L2355.33 194.443L2269.76 267.988L2326.96 345.204L2359.1 143.152L2203.29 466.767L2262.64 631.018L2346.32 587.625L2373.99 93.9744L2353.1 1038.45L2141.21 1153.71L2146.12 762.681L2288.8 1216.51L2341.55 1131.05L2111.75 1590.68L2299.84 1616.72L2309.38 1421.39L2348.46 1282.31L2312.54 450.017L2199.15 14.689L2272.83 830.569L2044.97 957.692L2313.84 963.066L2100.06 691.89L2335.89 700.881L2153.14 529.979L2325.59 503.179L2149.87 357.195L2318.9 376.85L2129.71 227.129L2334.84 234.274L1945.82 33.3843L364.002 10.5639L251.138 232.113L171.686 322.327L204.968 159.545L230.346 294.06L161.537 426.394L296.191 630.846L139.897 765.307L518.263 1651.65L1433.21 1608.34L1146.58 1570.01L1034.12 1676.02L1312.46 1681.91L1329.59 1555.94L1507.17 1697.35L1694.32 1638.27L1853.56 1638.27L2010.49 1676.5L2226.28 1630.77L2123.63 1401.37L2333.9 1495.48L1994.18 1552.2L1897.94 1680.43L1899.03 1529.85L1630.92 1544.33L1986.7 1476.5L1801.71 1665.86L1531.24 1601.95L1395.58 1692.39L1757.21 1486.4L1247.42 1442.68L1534.72 1425.06L1402.95 1660.39L1049.79 1494.75L1294.9 1466.11L1176.21 1612.41L907.278 1520.92L931.054 1640.01L1000.09 1521.31L986.218 1668.86L722.105 1592.61L730.928 1655.94L814.865 1590.19L866.779 1659.1L604.073 1667.88L652.51 1559.06L394.137 1643.27L562.509 1667.84L351.699 1664.6L500.844 1527.07L223.401 1523.39L277.062 1624.88L183.29 1314.09L359.418 1549.91L470.246 1470.93L213.962 1247.09L343.465 1159.62L172.407 1062.77L259.684 947.265L123.851 848.801L213.299 822.803L137.715 780.309L175.326 751.57L128.789 715.061L224.783 712.644L205.05 656.165L274.487 671.202L242.812 612.49L265.2 575.64L289.201 645.589L249.259 593.827L282.717 659.265L291.833 605.814L243.145 631.746L276.594 587.609L186.306 479.727L209.175 373.206L142.465 300.294L253.418 254.953L230.013 148.324L287.961 189.503L353.671 98.833L430.433 34.5156L20.2219 31.2429Z" fill="#c64040" fill-opacity="0.507691" fill-rule="nonzero" opacity="0" stroke="none"/>
</g>
</svg>
