<?xml version="1.0" encoding="UTF-8" standalone="no"?>
<!DOCTYPE svg PUBLIC "-//W3C//DTD SVG 1.1//EN" "http://www.w3.org/Graphics/SVG/1.1/DTD/svg11.dtd">
<!-- Created with Vectornator (http://vectornator.io/) -->
<svg height="100%" stroke-miterlimit="10" style="fill-rule:nonzero;clip-rule:evenodd;stroke-linecap:round;stroke-linejoin:round;" version="1.1" viewBox="0 0 3370.82 2384.24" width="100%" xml:space="preserve" xmlns="http://www.w3.org/2000/svg" xmlns:vectornator="http://vectornator.io" xmlns:xlink="http://www.w3.org/1999/xlink">
<defs/>
<clipPath id="ArtboardFrame">
<rect height="2384.24" width="3370.82" x="0" y="0"/>
</clipPath>
<g clip-path="url(#ArtboardFrame)" id="Layer-1" vectornator:layerName="Layer 1">
<path d="M-2.24185 3.28367L871.113 3.28367L871.113 2385.09L-2.24185 2385.09L-2.24185 3.28367Z" fill="#f9f29c" fill-rule="nonzero" opacity="1" stroke="none"/>
<path d="M873.378 1.42956L1459.1 1.42956L1459.1 1013.22L873.378 1013.22L873.378 1.42956Z" fill="#f097ff" fill-rule="nonzero" opacity="1" stroke="none"/>
<path d="M1458.55 706.701L2068.69 706.701L2068.69 1728.18L1458.55 1728.18L1458.55 706.701Z" fill="#ffb697" fill-rule="nonzero" opacity="1" stroke="none"/>
<path d="M871.964 1012.73L1457.72 1012.73L1457.72 2384.28L871.964 2384.28L871.964 1012.73Z" fill="#97ccff" fill-rule="nonzero" opacity="1" stroke="none"/>
<path d="M1456.53 1724.3L3370.4 1724.3L3370.4 2384.2L1456.53 2384.2L1456.53 1724.3Z" fill="#a397ff" fill-rule="nonzero" opacity="1" stroke="none"/>
<path d="M1458.53-0.953699L2645.22-0.953699L2645.22 707.813L1458.53 707.813L1458.53-0.953699Z" fill="#baff97" fill-rule="nonzero" opacity="1" stroke="none"/>
<path d="M2646.47-0.0850064L3372.55-0.0850064L3372.55 1727.36L2646.47 1727.36L2646.47-0.0850064Z" fill="#97f7ff" fill-rule="nonzero" opacity="1" stroke="none"/>
<path d="M2068.62 707.745L2646.2 707.745L2646.2 1723.83L2068.62 1723.83L2068.62 707.745Z" fill="#ff9797" fill-rule="nonzero" opacity="1" stroke="none"/>
<path d="M-3.45016 693.064C-3.45016 312.937 324.234 4.78252 728.453 4.78252C1132.67 4.78252 1460.36 312.937 1460.36 693.064C1460.36 1073.19 1132.67 1381.35 728.453 1381.35C324.234 1381.35-3.45016 1073.19-3.45016 693.064Z" fill="#ff9797" fill-opacity="0.665327" fill-rule="nonzero" opacity="1" stroke="none"/>
<path d="M1456.91 609.176C1456.91 274.701 1723.19 3.55534 2051.66 3.55534C2380.13 3.55534 2646.41 274.701 2646.41 609.176C2646.41 943.651 2380.13 1214.8 2051.66 1214.8C1723.19 1214.8 1456.91 943.651 1456.91 609.176Z" fill="#221ff4" fill-opacity="0.437898" fill-rule="nonzero" opacity="1" stroke="none"/>
<path d="M967.281 1824.24C967.281 1517.28 1215.54 1268.44 1521.78 1268.44C1828.02 1268.44 2076.28 1517.28 2076.28 1824.24C2076.28 2131.2 1828.02 2380.04 1521.78 2380.04C1215.54 2380.04 967.281 2131.2 967.281 1824.24Z" fill="#a9ff97" fill-opacity="0.417371" fill-rule="nonzero" opacity="1" stroke="none"/>
<path d="M2080.03 1745.04C2080.03 1391.24 2368.27 1104.43 2723.83 1104.43C3079.39 1104.43 3367.63 1391.24 3367.63 1745.04C3367.63 2098.85 3079.39 2385.66 2723.83 2385.66C2368.27 2385.66 2080.03 2098.85 2080.03 1745.04Z" fill="#fe2e99" fill-opacity="0.417371" fill-rule="nonzero" opacity="1" stroke="none"/>
<path d="M425.598 1255.11L984.764 1255.11C1043.99 1255.11 1092.01 1313.67 1092.01 1385.91L1092.01 2086.16C1092.01 2158.4 1043.99 2216.96 984.764 2216.96L425.598 2216.96C366.369 2216.96 318.354 2158.4 318.354 2086.16L318.354 1385.91C318.354 1313.67 366.369 1255.11 425.598 1255.11Z" fill="#00ff0c" fill-opacity="0.290414" fill-rule="nonzero" opacity="1" stroke="none"/>
<path d="M2610.53 156.654L3112.7 156.654C3184.23 156.654 3242.21 212.972 3242.21 282.444L3242.21 1243.74C3242.21 1313.21 3184.23 1369.53 3112.7 1369.53L2610.53 1369.53C2539 1369.53 2481.01 1313.21 2481.01 1243.74L2481.01 282.444C2481.01 212.972 2539 156.654 2610.53 156.654Z" fill="#0013f5" fill-opacity="0.440999" fill-rule="nonzero" opacity="1" stroke="none"/>
<path d="M1399.37 489.944L2157.4 489.944C2241.3 489.944 2309.32 544.642 2309.32 612.116L2309.32 1847.78C2309.32 1915.25 2241.3 1969.95 2157.4 1969.95L1399.37 1969.95C1315.46 1969.95 1247.45 1915.25 1247.45 1847.78L1247.45 612.116C1247.45 544.642 1315.46 489.944 1399.37 489.944Z" fill="#ff0000" fill-opacity="0.266075" fill-rule="nonzero" opacity="1" stroke="none"/>
</g>
</svg>
