<?xml version="1.0" encoding="UTF-8" standalone="no"?>
<!DOCTYPE svg PUBLIC "-//W3C//DTD SVG 1.1//EN" "http://www.w3.org/Graphics/SVG/1.1/DTD/svg11.dtd">
<!-- Created with Vectornator (http://vectornator.io/) -->
<svg height="100%" stroke-miterlimit="10" style="fill-rule:nonzero;clip-rule:evenodd;stroke-linecap:round;stroke-linejoin:round;" version="1.1" viewBox="0 0 2384.24 1683.99" width="100%" xml:space="preserve" xmlns="http://www.w3.org/2000/svg" xmlns:vectornator="http://vectornator.io" xmlns:xlink="http://www.w3.org/1999/xlink">
<defs/>
<clipPath id="ArtboardFrame">
<rect height="1683.99" width="2384.24" x="0" y="0"/>
</clipPath>
<g clip-path="url(#ArtboardFrame)" id="Layer-1" vectornator:layerName="Layer 1">
<path d="M-1.22908-9.74282L2391.53-9.74282L2391.53 1695.25L-1.22908 1695.25L-1.22908-9.74282Z" fill="#ffec00" fill-rule="nonzero" opacity="1" stroke="none"/>
<path d="M146.811 275.422L205.372 852.183" fill="#1b04b4" fill-rule="nonzero" opacity="1" stroke="none"/>
<path d="M521.673 139.419L222.194 86.8164L391.785 1579.23L411.636 17.9356L177.359 1101.67L681.108 1115.74L65.8318 671.495L66.6965 763.899L172.534 287.037L59.9366 1138.49L205.58 411.671L188.645 838.681L322.821 6.53301L259.521 49.6704C259.521 49.6704 429.859 108.387 449.387 171.188C534.784 445.816 282.792 248.824 282.718 333.115C282.644 417.406 409.834 540.151 466.802 548.273C563.317 562.033 549.566 380.767 506.427 399.31C36.9814 601.098 272.44 437.563 272.44 437.563L487.684 863.534L548.862 716.272L276.446 760.714L130.149 1028.36L183.293 1006.43L149.701 925.285L149.305 1046.7L186.503 972.213L140.348 980.179L198.514 926.162L233.653 961.337L215.078 835.622L332.97 648.758L284.433 532.916C284.433 532.916 814.716 420.591 500.623 609.029C331.729 710.356 410.816 198.396 316.95 210.267C278.118 215.178 355.204 684.273 355.204 684.273C355.204 684.273 788.794 693.511 395.446 1577.41" fill="#1b04b4" fill-rule="nonzero" opacity="1" stroke="#00f1db" stroke-linecap="round" stroke-linejoin="round" stroke-width="1"/>
<path d="M743.573 415.498L602.801 607.291" fill="#b40e8f" fill-rule="nonzero" opacity="1" stroke="none"/>
<path d="M1127.02 837.473L1192.9 158.044L1172.22 1389.71C1172.22 1389.71 1030.54 381.688 1002.54 333.052C974.539 284.416 1060.22 1195.17 1060.22 1195.17L1274.1 280.643L1335.35 1174L1083.96 394.765L1567.74 762.034L1222.65 1211.5L1488.49 414.933L899.728 453.291L1572.57 953.9L1606.21 553.454L902.437 1213.96L1094.37 713.87L760.13 571.341C760.13 571.341 1192.3 1041.15 898.711 797.562C362.489 352.668 1378.21 1455.02 1378.21 1455.02C1378.21 1455.02 928.737 380.953 903.721 974.956C897.959 1111.78 734.299 735.944 687.071 692.712C529.987 548.915 749.214 854.228 749.214 854.228L1427.83 312.742L1483.99 764.585L1706.1 873.938L627.504 1127.05L1801.05 729.888C1801.05 729.888 1737.37 1005.69 1628.22 676.372C1571.99 506.725 671.235 529.601 1053.23 271.81C1249.27 139.52 732.11 351.88 732.11 351.88C732.11 351.88 783.268 135.289 823.821 213.246C989.447 531.643 1435.6 1429.79 1550.65 1407.54C1693.86 1379.84 1603.23 1490.65 1603.23 1490.65L1624.94 1135.15L1427.92 1376.76L1691.81 1320.84L1330.32 1199.74L1460.67 1087.78L1513.63 1495.58L1195.38 1473.52L1665.38 1066.02L1519.67 943.855L1539.86 1170.2L1679.34 1136.64L1408.62 1032.82L1685.96 970.71L903.609 1463.65L824.899 1224.1C824.899 1224.1 861.899 1603.62 931.86 1654.32C1001.82 1705.01 1104.74 1426.86 1104.74 1426.86L996.865 1255.23L993.854 1472.52L1272.83 1515.43L1044.22 1602.66L1159.58 1418.78L1203.26 1597.2L628.597 1418.86L729.791 1356.25L719.079 1201.74C719.079 1201.74 832.23 1301.65 785.278 1393.52C738.325 1485.4 861.249 1613.62 861.249 1613.62L743.875 947.879L878.83 1102.16L693.698 1139.21L1121.11 1371L1464.28 1582.35L1127.02 837.473Z" fill="#b40e8f" fill-rule="nonzero" opacity="1" stroke="none"/>
<path d="M2026.3 997.135C2026.3 997.135 1787.9 1276.07 1918.04 1307.16C2048.18 1338.25 1873.35 580.001 1862.48 907.704C1851.62 1235.41 2166.21 1318.41 2241.45 1359.93C2269.35 1375.32 2106.24 1399.95 2115.74 1301.07C2119.47 1262.35 2225.17 1216.13 2238.93 1171.01C2284.79 1020.61 2146.64 867.803 2047.57 1059.26C2041.11 1071.74 2679.13 901.637 2080.67 1114.03C1881.73 1184.64 2112.83 1150.26 2106.39 1160.42C1890.69 1500.79 1544.41 1572.83 2113.19 1416.93C2155.73 1405.27 2180.04 1399.84 2192.03 1398.66C2356.75 1382.47 1989.59 1515.97 2221.06 1599.43C2402.54 1664.85 1724.88 950.289 1727.31 1127.19C1730.61 1367.19 2208.91 738.242 2208.91 738.242L1935.61 315.338L1843.59 758.369L2094.17 478.457L1665.44 492.938L2274.93 600.259C2274.93 600.259 2034.97 718.234 1918.58 656.021C1849.66 619.183 1834.47 529.318 1834.47 529.318C1834.47 529.318 2237.47 268.675 2292.39 420.331C2339.42 550.192 1951.85 802.541 1951.85 802.541L2093.19 874.887L2167.99 215.035L1964.83 963.474L2196.55 668.954L2210.65 964.106L2055.85 885.259L2026.3 997.135Z" fill="#1b04b4" fill-rule="nonzero" opacity="1" stroke="none"/>
<path d="M589.044 405.964L576.859 766.501L1201.92 956.124L364.985 1019.36L1420.31 1014.45L1519.91 203.151L1027.97 1593.14L478.688 1339.85L108.093 433.036L246.117 1338.63C246.117 1338.63-38.9786 1520.41 43.0425 1203.07C89.0077 1025.23 452.065 612.273 584.961 352.469C689.206 148.674 574.201 69.2562 574.201 69.2562L397.528 1525L1205.5 50.7915L2305.27 1191.51L132.966 296.189L2042.67 107.275L1132.11 1662.69L1048.23 45.4544L752.841 1585.44L1977.42 1415.9L2107.42 189.922L1781.17 1623.63C1781.17 1623.63 1819.33 16.3277 1764.36 18.7614C1636.88 24.4046 1561.07 1621.27 1561.07 1621.27L1536.02 1641.24L631.952 494.548L645.906 1512.96L869.358 109.834L104.287 1171.27L2348.46 1088.39L298.308 596.945L2293.15 825.769L2211.95 918.822L1316.07 21.9358L540.328 1517.08L277.076 141.65L1492.58 969.019L207.052 1482.7C207.052 1482.7 2153.37 1093.94 2216.42 1252.36C2250.08 1336.95 889.06 1477.33 889.06 1477.33L1836.26 1175.41L1969.35 1581.22L1123.7 159.896L171.759 509.94C171.759 509.94 1392.38 884.655 1770.28 936.063C2148.18 987.471 1645.94 801.784 1776.99 797.742C1908.04 793.699 2274.92 924.614 2274.92 924.614L549.98 885.402L60.4232 933.278C60.4232 933.278 189.127 1047.37 319.215 1080.71C449.302 1114.04 580.772 1066.61 580.772 1066.61L229.59 438.79L127.598 1501.03L258.237 1127.99L39.4124 996.346L164.879 1350.22L308.488 1385.96L343.271 1264.46L589.044 405.964Z" fill="#ff0303" fill-opacity="0.477065" fill-rule="nonzero" opacity="1" stroke="none"/>
</g>
</svg>
