<?xml version="1.0" encoding="UTF-8" standalone="no"?>
<!DOCTYPE svg PUBLIC "-//W3C//DTD SVG 1.1//EN" "http://www.w3.org/Graphics/SVG/1.1/DTD/svg11.dtd">
<!-- Created with Vectornator (http://vectornator.io/) -->
<svg height="100%" stroke-miterlimit="10" style="fill-rule:nonzero;clip-rule:evenodd;stroke-linecap:round;stroke-linejoin:round;" version="1.1" viewBox="0 0 2384.24 1683.99" width="100%" xml:space="preserve" xmlns="http://www.w3.org/2000/svg" xmlns:vectornator="http://vectornator.io" xmlns:xlink="http://www.w3.org/1999/xlink">
<defs/>
<clipPath id="ArtboardFrame">
<rect height="1683.99" width="2384.24" x="0" y="0"/>
</clipPath>
<g clip-path="url(#ArtboardFrame)" id="Layer-1" vectornator:layerName="Layer 1">
<path d="M-17.2417-12.4447L2399.15-12.4447L2399.15 1712.26L-17.2417 1712.26L-17.2417-12.4447Z" fill="#000000" fill-rule="nonzero" opacity="1" stroke="none"/>
<path d="M564.293 497.131L896.912 1047.53L635.992 952.772L914.402 830.149L779.322 1061.68L638.52 889.896L983.614 952.423L676.16 767.131L743.678 580.232L603.306 673.453L770.906 687.039L1142.49 627.632L969.687 443.783L905.895 737.802L964.228 747.608L1136.6 473.292L777.143 551.089L1119.18 747.208L1070.3 806.415L1075.05 656.684L971.39 789.449L957.534 703.589L784.474 751.345L822.508 626.967L880.873 768.437L831.991 819.675L925.503 808.778L631.68 556.19L564.293 497.131Z" fill="#f54c4c" fill-rule="nonzero" opacity="1" stroke="none"/>
<path d="M929.463 1165.37L1092.23 1336.34L1138.7 1130.22L966.579 1332.9L1030.18 1157.58L926.677 1275.53L1194.54 1233.88L1047.21 1341.65L1070.46 1268.53L1024.7 1324.45L962.236 1362.02L1246.62 1347.59L1148.06 1394.96L1186.95 1297.22L902.409 1427.76L995.341 1414.56L1054.41 1189.95L898.99 1194.89L929.463 1165.37Z" fill="#ffffff" fill-rule="nonzero" opacity="1" stroke="none"/>
<path d="M1174.04 1187.55L1083.66 1077.28L1189.51 858.504L1220.6 969.573L1122.4 885.272L1245.04 914.555L1080.3 966.077L1164.99 1033.38L1046.51 1011.71L1186.74 1064.35L1035.32 1134.25L1246.27 1127.24L1174.04 1187.55Z" fill="#ffffff" fill-rule="nonzero" opacity="1" stroke="none"/>
<path d="M1322.91 344.307L1207.51 244.262L1533.37 208.085L1481.5 628.376L1320.84 431.218L1582.55 536.584L1279.18 587.772L1595.6 359.655L1361.81 132.593L1322.91 344.307Z" fill="#ffffff" fill-rule="nonzero" opacity="1" stroke="none"/>
<path d="M2118.24 1340.74L2050.13 1041.34L1985.23 876.092L1872.59 1376.57L1851.63 1172.55L2232.63 1187L1873.07 1086.29L1860.69 955.028L2080.3 998.779L2226.83 1252.7L1986.21 1268.22L2118.24 1340.74Z" fill="#ffffff" fill-rule="nonzero" opacity="1" stroke="none"/>
<path d="M1698.17 538.795L1391.66 631.279L1543.77 638.155L1698.17 538.795Z" fill="#00d6f5" fill-rule="nonzero" opacity="1" stroke="none"/>
<path d="M1533.79 704.921L1730.57 617.168L1654.22 439.939L1666.8 738.686L1484.01 831.739L1637.54 908.47L1485.91 1028.53L1585.69 1063.46L1396.44 1174.17L1553.28 1175.35" fill="#00d6f5" fill-rule="nonzero" opacity="1" stroke="none"/>
<path d="M2017.45 704.986L1907.2 297.401L1847.49 421.585L1952.8 364.508L1911.27 469.591L2039.33 434.59L1907.56 666.182L2135.82 505.518L1786.09 839.623L2273.66 528.066L1821.56 548.972L2140.37 708.319L2017.45 704.986Z" fill="#00d6f5" fill-rule="nonzero" opacity="1" stroke="none"/>
<path d="M339.792 296.244L203.973 157.654L268.049 1081.3L195.227 963.192L326.316 970.792L174.615 816.635L365.299 817.73L158.418 630.183L379.124 670.659L139.731 453.09L419.468 486.779L127.566 268.364L478.017 393.014L100.598 161.023L484.573 178.033L117.974 714.738L309.355 117.642L352.786 572.479L480.573 255.568L385.994 130.719L339.792 296.244Z" fill="#f500cb" fill-rule="nonzero" opacity="1" stroke="none"/>
<path d="M513.632 679.089L571.796 1482.98L238.788 1524.24L834.471 1582.29L787.286 1298.64L699.946 1607.45L870.721 1490.76L685.709 1422.8L877.373 1387.78L669.213 1550.58L369.675 1588.94L669.246 1278.19L578.336 1639.93L459.874 1651.36L664.441 1446.89L367.862 1325.09L737.632 1368.22L316.317 1156.31L610.493 1176.95L294.371 1300.47L620.426 924.39L419.018 872.456L623.074 867.105L427.461 1063.15L472.287 1438.39L513.632 679.089Z" fill="#f5ee00" fill-rule="nonzero" opacity="1" stroke="none"/>
<path d="M733.144 198.796L1314.41 988.455L1216.59 571.999L781.411 769.982L1295.17 626.654L1935.77 483.839L1892.74 1209.08L555.944 1447.25L840.059 1192.56L1354.26 702.198L1591.15 371.167L1674.39 1558.74L441.39 1074.87L783.761 991.767L1037.09 827.563L1181.37 1572.77L1106.43 90.6206L1201.16 1000.87L962.167 1205.91L1198.36 1086.63L1053.9 1641.89L1642.09 706.129L1902.11 185.928L2117.66 1177.65L2206.38 1504.28L1958.75 1196.17L1332.95 1624.29L2203.32 695.016L1675.91 289.224L1788.53 1483.56L2051.65 156.013L950.822 839.402L818.203 872.659L623.331 1033.68L402.356 1286.64L723.691 1099.11L803.98 1298.92L601.796 1296.44L2078.63 1533.6L2362.31 997.651L1957.69 1125.44L1676.18 974.238L2323.57 928.836L1690.23 918.962L1785.18 566.297L1442.74 711.272L1292.48 812.867L915.059 778.82L1440.85 877.008L1691.57 817.645L1788.72 754.771L1783.99 637.754L1480.16 1176.68L1158.44 87.5492L1412.14 666.285L1336.34 1058.24L1889.95 754.482L1657.9 776.655L968.659 889.074L874.403 881.117L1123.44 1058.52L921.028 1049.14L918.226 1650.43L1021.9 942.341L1008.36 219.841L831.759 544.341L2185.55 319.722L1399.26 508.397L690.444 309.389L1074.46 252.493L1353.76 342.43L1814.54 702.543L1226.42 1054.33L1459.01 770.866L1493.65 680.915L1577.78 485.989L1407.63 1310.3L2300.82 803.817L2001.82 1406.09L1864.42 1568.73L1587.93 717.066L1339.23 58.9102L945.688 611.617L733.144 198.796Z" fill="#ffffff" fill-opacity="0.655713" fill-rule="nonzero" opacity="1" stroke="none"/>
<path d="M406.109 590.678L521.153 466.386L642.126 498.475L548.29 688.462L409.118 728.663L640.258 424.527L718.859 686.548L431.689 812.836L794.183 440.357L627.419 788.328L546.731 361.951L346.828 389.416L811.136 584.55L701.459 249.258L844.127 406.714L596.423 283.429L822.187 270.751L699.476 423.988L868.795 510.488L750.612 610.801L708.004 482.346L631.145 361.641L450.534 299.89L533.663 425.031L676.985 403.733L585.373 337.351L512.778 546.482L406.109 590.678Z" fill="#ffffff" fill-rule="nonzero" opacity="1" stroke="none"/>
<path d="M101.111 346.276L670.531 237.156L613.792 421.539L172.541 147.94L154.965 1258.28L630.225 784.345L962.104 983.004L702.433 1055.25L157.792 722.935L872.235 1318.4L308.248 881.66L496.618 696.913L1152.72 47.8578L253.014 1642.94L859.574 773.654L1367.31 582.252L1015.84 27.1498L1210.61 1253.25L774.069 1650.65L200.45 1542.39L1066.48 1546.21L692.132 392.652L132.834 1358.91L1108.6 1102.14L425.309 1436.32L132.276 797.784L597.62 1373.46L264.236 372.418L1360.21 343.266L1185.46 62.5405L1141.88 1075.69L1029.23 773.354L1038.41 989.638L677.605 78.0356L865.885 1235.37L1369.72 1087.17L1303.6 1596.91L1196.15 1584.47L1508.81 1346.37L1302.1 1371.26L1373.46 1521.84L1544.96 221.515L1206.8 944.599L1532.34 1030.49L852.058 128.718L434.61 489.471L86.8432 811.65L610.533 105.657L380.849 85.9757L295.553 1473.91L101.111 346.276Z" fill="#bc60ff" fill-opacity="0.551327" fill-rule="nonzero" opacity="1" stroke="none"/>
<path d="M2499.45 229.462L1459.12 142.67L1904 144.954L1746.06 385.721L1644.65 301.505L1702.29 698.556L1503.42 675.773L2050.42 488.049L2035.11 920.094L1813.55 920.094L2164.55 923.14L2168.66 1301.23L1827.08 1362.76L2024.32 1080.38L2296.91 1080.38L2234.04 1276.97L2238.16 1452.37L1947.69 1452.37L1880.73 1622.34L2182.75 1624.36L2093.76 1541.14L1744.88 1511.42L1593.92 1606.36L1543.07 1383.3L1763.06 1572.09L1756.51 1138.23L1876.07 1136.71L1700.61 1217.05L1888.3 926.478L2262.21 1079.53L2205.02 639.307L2060.52 368.738L1751.15 219.155L1622.33 52.8945L1455.36 222.227L1886.44 89.2081L1999.34 277.757L2119.86 34.7567L2151.03 277.859L2152.58 70.1819L2258.5 304.894L2258.5 86.3777L2298.66 264.659L2347.59 112.156L2056.06 263.681L1761.22 76.5155L2253.58 465.862L2269.82 322.499L2139.27 428.381L2237.29 594.147L2168.74 314.82L2350.3 479.786L2222.34 112.207L2499.45 229.462Z" fill="#ffb960" fill-opacity="0.551327" fill-rule="nonzero" opacity="1" stroke="none"/>
</g>
</svg>
